<svg width="244" height="226" viewBox="0 0 244 226" fill="none" xmlns="http://www.w3.org/2000/svg">
<path d="M121.12 50.6832C121.064 45.3209 122.598 40.0623 125.531 35.5723C128.463 31.0824 132.661 27.5627 137.593 25.4585C142.526 23.3543 147.971 22.76 153.242 23.7507C158.512 24.7415 163.37 27.2728 167.202 31.0246C171.033 34.7764 173.666 39.5802 174.768 44.8284C175.869 50.0767 175.39 55.5337 173.39 60.5095C171.39 65.4852 167.96 69.7562 163.532 72.7822C159.105 75.8083 153.88 77.4536 148.518 77.5101M121.12 50.6832C121.064 45.3209 119.418 40.0958 116.392 35.6686C113.366 31.2413 109.095 27.8109 104.119 25.811C99.1436 23.811 93.6866 23.3315 88.4383 24.433C83.1901 25.5345 78.3863 28.1676 74.6345 31.9993C70.8827 35.8309 68.3514 40.689 67.3606 45.9593C66.3698 51.2296 66.9642 56.6754 69.0684 61.6079C71.1726 66.5404 74.6923 70.7382 79.1822 73.6704C83.6722 76.6026 88.9308 78.1375 94.2931 78.081M121.12 50.6832L121.215 59.7207M148.518 77.5101C153.88 77.4536 159.139 78.9885 163.629 81.9207C168.119 84.8529 171.638 89.0507 173.742 93.9832C175.847 98.9158 176.441 104.361 175.45 109.632C174.46 114.902 171.928 119.76 168.176 123.592C164.425 127.423 159.621 130.057 154.373 131.158C149.124 132.26 143.667 131.78 138.692 129.78C133.716 127.78 129.445 124.35 126.419 119.923C123.393 115.495 121.747 110.27 121.691 104.908M148.518 77.5101L139.48 77.6052M94.2931 78.081C88.9308 78.1375 83.7057 79.7828 79.2784 82.8089C74.8512 85.835 71.4207 90.1059 69.4208 95.0816C67.4209 100.057 66.9414 105.514 68.0429 110.763C69.1444 116.011 71.7775 120.815 75.6091 124.566C79.4408 128.318 84.2989 130.85 89.5692 131.84C94.8395 132.831 100.285 132.237 105.218 130.133C110.15 128.028 114.348 124.509 117.28 120.019C120.212 115.529 121.747 110.27 121.691 104.908M94.2931 78.081L103.331 77.9859M121.691 104.908L121.596 95.8704" stroke="white" stroke-width="8.56296" stroke-linecap="round" stroke-linejoin="round"/>
<path d="M121.596 95.8705C131.578 95.7653 139.586 87.5877 139.48 77.6053C139.375 67.6228 131.198 59.6156 121.215 59.7207C111.233 59.8258 103.226 68.0034 103.331 77.9859C103.436 87.9684 111.613 95.9756 121.596 95.8705Z" stroke="white" stroke-width="8.56296" stroke-linecap="round" stroke-linejoin="round"/>
<path d="M121.596 95.8705L122.738 204.32" stroke="white" stroke-width="8.56296" stroke-linecap="round" stroke-linejoin="round"/>
<path d="M122.738 204.32C160.695 203.92 185.841 188.588 185.524 158.466C147.567 158.866 122.421 174.198 122.738 204.32Z" stroke="white" stroke-width="8.56296" stroke-linecap="round" stroke-linejoin="round"/>
<path d="M122.738 204.32C84.7806 204.719 59.3172 189.92 59 159.799C96.9572 159.399 122.421 174.198 122.738 204.32Z" stroke="white" stroke-width="8.56296" stroke-linecap="round" stroke-linejoin="round"/>
</svg>
